<svg id="svg" version="1.1" xmlns="http://www.w3.org/2000/svg" xmlns:xlink="http://www.w3.org/1999/xlink" width="400" height="400" viewBox="0, 0, 400,400"><g id="svgg"><path id="path0" d="M45.087 57.272 C 35.380 82.570,35.561 185.242,45.379 221.875 C 52.011 246.625,60.990 250.000,120.208 250.000 C 157.219 250.000,187.500 254.373,187.500 259.719 C 187.500 282.556,146.659 325.000,124.684 325.000 C 108.576 325.000,103.130 331.112,107.980 343.750 C 118.320 370.696,281.680 370.696,292.020 343.750 C 296.870 331.112,291.424 325.000,275.316 325.000 C 253.341 325.000,212.500 282.556,212.500 259.719 C 212.500 254.373,242.781 250.000,279.792 250.000 C 356.129 250.000,362.018 241.823,362.329 135.397 C 362.621 35.545,365.863 37.500,200.000 37.500 C 77.190 37.500,51.412 40.790,45.087 57.272 M347.654 117.922 C 355.277 238.358,356.329 237.500,201.099 237.500 C 46.749 237.500,50.000 239.763,50.000 132.311 C 50.000 46.513,45.770 48.677,205.595 52.739 L 343.750 56.250 347.654 117.922 M216.318 96.479 C 194.112 104.126,91.719 200.065,106.256 199.603 C 113.127 199.385,138.167 179.697,161.898 155.853 C 223.179 94.281,240.269 101.842,180.662 164.154 L 131.250 215.808 170.750 208.441 C 207.024 201.677,334.107 100.512,306.777 100.156 C 300.192 100.070,273.576 120.728,247.631 146.063 C 221.687 171.397,196.641 188.308,191.975 183.642 C 187.309 178.976,196.120 164.206,211.555 150.820 C 240.103 126.060,243.517 87.112,216.318 96.479 M228.125 346.322 C 212.656 349.301,187.344 349.301,171.875 346.322 C 156.406 343.342,169.062 340.905,200.000 340.905 C 230.938 340.905,243.594 343.342,228.125 346.322 " stroke="none" fill="#000000" fill-rule="evenodd"></path></g></svg>